<?xml version="1.0" encoding="UTF-8"?>
<svg width="120px" height="120px" viewBox="0 0 120 120" version="1.1" xmlns="http://www.w3.org/2000/svg" xmlns:xlink="http://www.w3.org/1999/xlink">
    <!-- Generator: Sketch 52.6 (67491) - http://www.bohemiancoding.com/sketch -->
    <title>大赛流程/5</title>
    <desc>Created with Sketch.</desc>
    <g id="大赛流程/5" stroke="none" stroke-width="1" fill="none" fill-rule="evenodd">
        <path d="M108.9138,103.646586 C108.071119,104.481928 107.228438,104.899598 105.964416,104.899598 C104.700394,104.899598 103.857713,104.481928 103.015032,103.646586 L91.2174962,91.9518072 L93.7455396,89.4457831 L97.116264,86.1044177 L108.9138,97.7991968 C109.756481,98.6345382 110.177821,99.4698795 110.177821,100.722892 C110.177821,101.975904 109.756481,102.811245 108.9138,103.646586 Z M79.841301,92.7871486 L65.9370625,80.2570281 L85.3187283,63.1325301 L96.6949235,75.6626506 L88.2681123,84.0160643 L80.6839822,91.5341365 L79.841301,92.7871486 Z M24.2243469,75.6626506 L38.1285855,60.626506 L62.9876786,33.060241 L78.9986199,15.5180723 L99.6443074,17.188755 L101.75101,38.4899598 L41.0779694,92.7871486 L40.2352883,91.9518072 L24.2243469,75.6626506 Z M18.3255791,103.646586 C16.6402168,105.317269 14.1121735,105.317269 12.4268112,103.646586 C11.5841301,102.811245 11.1627895,101.975904 11.1627895,100.722892 C11.1627895,99.4698795 11.5841301,98.6345382 12.4268112,97.7991968 L24.2243469,86.1044177 L30.1231148,92.3694779 L18.3255791,103.646586 Z M21.274963,17.188755 L41.9206505,15.5180723 L55.824889,30.5542169 L38.9712666,49.3493976 L35.6005421,53.1084337 L19.1682602,38.4899598 L21.274963,17.188755 Z M113.969886,92.7871486 L101.75101,80.6746988 L112.705865,69.3975904 C113.969886,68.1445783 113.969886,65.6385542 112.705865,64.3855422 C111.441843,63.1325301 108.9138,63.1325301 107.649778,64.3855422 L101.32967,70.6506024 L90.3748151,58.5381526 L108.071119,42.6666667 C108.9138,41.8313253 109.33514,40.5783133 109.33514,39.7429719 L106.385756,13.4297189 C106.385756,11.7590361 104.700394,10.5060241 103.015032,10.0883534 L77.7345982,8 C76.4705765,8 75.6278954,8.41767068 74.7852143,9.25301205 L60.4596352,25.124498 L46.1340561,9.25301205 C45.291375,8.41767068 44.4486939,8 43.1846722,8 L17.9042385,10.0883534 C16.2188763,10.0883534 14.9548546,11.7590361 14.533514,13.4297189 L11.5841301,39.7429719 C11.5841301,40.9959839 12.0054707,41.8313253 12.8481518,42.6666667 L30.5444554,58.5381526 L19.1682602,70.6506024 L13.2694923,64.3855422 C12.0054707,63.1325301 9.4774273,63.1325301 8.21340561,64.3855422 C6.94938393,65.6385542 6.94938393,68.1445783 8.21340561,69.3975904 L17.0615574,78.1686747 L19.5896008,80.6746988 L7.37072449,92.7871486 C5.26402168,94.875502 4,97.7991968 4,100.722892 C4.07281657,106.920921 9.12370604,111.927818 15.3761952,112 C18.3255791,112 21.274963,110.746988 23.3816658,108.658635 L35.1792015,96.9638554 L38.1285855,100.305221 L45.7127156,107.823293 C46.5553967,108.658635 47.3980778,109.076305 48.2407589,109.076305 C49.0834401,109.076305 49.9261212,108.658635 50.7688023,108.240964 C52.032824,106.987952 52.032824,104.481928 50.7688023,103.228916 L46.1340561,98.2168675 L60.4596352,85.2690763 L74.7852143,98.2168675 L70.1504681,103.228916 C68.8864464,104.481928 68.8864464,106.987952 70.1504681,108.240964 C70.9931492,109.076305 71.8358304,109.076305 72.6785115,109.076305 C73.5211926,109.076305 74.3638737,108.658635 75.2065549,107.823293 L85.7400689,96.9638554 L97.5376046,108.658635 C99.6443074,110.746988 102.593691,112 105.543075,112 C111.795564,111.927818 116.846454,106.920921 116.91927,100.722892 C117.340611,97.7991968 116.076589,94.875502 113.969886,92.7871486 Z" id="Shape" stroke="#41367F" stroke-width="5.4" fill="#41367F" fill-rule="nonzero"></path>
    </g>
</svg>