<?xml version="1.0" encoding="UTF-8"?>
<svg width="120px" height="120px" viewBox="0 0 120 120" version="1.1" xmlns="http://www.w3.org/2000/svg" xmlns:xlink="http://www.w3.org/1999/xlink">
    <!-- Generator: Sketch 52.6 (67491) - http://www.bohemiancoding.com/sketch -->
    <title>大赛流程/1</title>
    <desc>Created with Sketch.</desc>
    <g id="大赛流程/1" stroke="none" stroke-width="1" fill="none" fill-rule="evenodd">
        <g id="zhuce-copy-7" transform="translate(7.000000, 6.000000)" fill="#41367F">
            <path d="M75.8860687,69.7952895 C77.8164227,66.7846186 76.96648,62.7621017 73.9878192,60.8112262 C71.5610034,59.2216446 69.011727,57.866681 66.3704396,56.7548102 C74.055669,51.0246221 79.0508475,41.8117394 79.0508475,31.4404859 C79.0508475,14.1042891 65.0966289,0 47.9446444,0 C30.7926599,0 16.8384413,14.1041776 16.8384413,31.4404859 C16.8384413,41.8053833 21.8276622,51.0135826 29.5049482,56.7443282 C23.7942027,59.1481592 18.5486972,62.6834868 14.0425888,67.2377971 C4.98712473,76.3905757 0,88.5600468 0,101.50407 C0,105.091807 2.87749286,108 6.42686408,108 C9.97623531,108 12.8537282,105.091807 12.8537282,101.50407 C12.8537282,81.9468074 28.5954301,66.0361604 47.944534,66.0361604 C54.7382283,66.0361604 61.3267183,67.9994135 66.9975261,71.7137155 C69.9765178,73.6649255 73.956156,72.8057374 75.8860687,69.7950665 L75.8860687,69.7952895 Z M47.944534,12.9920838 C58.0089189,12.9920838 66.1968986,21.2681672 66.1968986,31.4405974 C66.1968986,41.6130277 58.0088086,49.8891111 47.944534,49.8891111 C37.8801492,49.8891111 29.6921694,41.6131392 29.6921694,31.4405974 C29.6921694,21.2680557 37.8802595,12.9920838 47.944534,12.9920838 Z" id="Shape" fill-rule="nonzero"></path>
            <path d="M99.4409434,80.7285678 L91.8980396,80.7285678 L91.8980396,73.1714322 C91.8980396,69.5419946 88.9615856,66.6 85.3389831,66.6 C81.7163805,66.6 78.7799265,69.5419946 78.7799265,73.1714322 L78.7799265,80.7285678 L71.2370227,80.7285678 C67.6144202,80.7285678 64.6779661,83.6705624 64.6779661,87.3 C64.6779661,90.9294376 67.6144202,93.8714322 71.2370227,93.8714322 L78.7799265,93.8714322 L78.7799265,101.428568 C78.7799265,105.058005 81.7163805,108 85.3389831,108 C88.9615856,108 91.8980396,105.058005 91.8980396,101.428568 L91.8980396,93.8714322 L99.4409434,93.8714322 C103.063546,93.8714322 106,90.9294376 106,87.3 C106,83.6705624 103.063546,80.7285678 99.4409434,80.7285678 Z" id="Path"></path>
        </g>
    </g>
</svg>