<?xml version="1.0" encoding="UTF-8"?>
<svg width="120px" height="120px" viewBox="0 0 120 120" version="1.1" xmlns="http://www.w3.org/2000/svg" xmlns:xlink="http://www.w3.org/1999/xlink">
    <!-- Generator: Sketch 52.6 (67491) - http://www.bohemiancoding.com/sketch -->
    <title>大赛流程/6</title>
    <desc>Created with Sketch.</desc>
    <g id="大赛流程/6" stroke="none" stroke-width="1" fill="none" fill-rule="evenodd">
        <g id="jiangbei" transform="translate(5.000000, 4.000000)">
            <path d="M110.721339,6.72000003 L110.721339,5.22666668 L89.5430962,5.22666668 L90.6577406,0 L20.0635983,0 L20.8066945,5.22666668 L0,5.22666668 C0,5.22666668 0,25.76 3.71548116,35.84 C8.91715482,50.4000001 17.0912133,60.1066667 28.9807531,65.3333334 C30.0953975,66.08 30.8384938,66.4533334 30.8384937,67.9466667 C31.2100418,71.68 31.5815898,75.04 31.9531381,78.7733333 L32.6962343,84.3733334 L47.9297071,84.3733334 L47.9297071,97.8133333 L21.1782427,97.8133333 L21.1782427,112 L89.1715481,112 L89.1715481,98.1866667 L62.4200836,98.1866667 L62.4200836,84.7466666 L77.6535564,84.7466666 L78.3966527,79.1466667 C78.7682009,75.4133334 79.5112971,72.0533334 79.8828452,68.32 C80.2543934,66.4533332 80.6259414,66.08 81.7405857,65.7066666 C83.5983264,64.96 85.4560669,63.8399999 86.9422594,62.72 C97.7171547,55.6266668 104.776569,45.5466668 108.49205,30.9866667 C110.721339,23.8933334 111.464435,16.0533334 110.721339,6.72000003 Z" id="Path" fill="#41367F"></path>
            <path d="M70.2225941,41.0666667 L65.7640168,70.1866667 C65.7640168,70.9333333 65.3924686,70.9333333 65.3924686,70.9333333 L44.5857741,70.9333333 L44.5857741,70.5600001 C42.7280335,58.9866667 40.8702929,47.4133334 39.3841004,35.84 L36.0401673,14.1866667 L74.3096234,14.1866667 L73.5665272,17.92 C72.8234311,21.6533333 72.4518829,25.76 71.7087866,29.4933334 L70.2225941,41.0666667 Z" id="Path" fill="#FFFFFF"></path>
            <path d="M14.4903765,19.4133334 L22.6644351,19.4133334 C23.4075313,23.8933333 26.0083682,38.8266667 27.4945606,48.5333333 C20.0635983,43.3066667 13.3757322,29.12 13.3757322,19.4133334 L14.4903765,19.4133334 Z" id="Path" fill="#FFFFFF"></path>
            <path d="M96.9740586,19.4133334 C97.7171547,28 90.6577406,42.1866667 83.2267782,48.16 L87.6853556,19.4133334 L96.9740586,19.4133334 Z" id="Path" fill="#FFFFFF"></path>
        </g>
    </g>
</svg>