<?xml version="1.0" encoding="UTF-8"?>
<svg width="120px" height="120px" viewBox="0 0 120 120" version="1.1" xmlns="http://www.w3.org/2000/svg" xmlns:xlink="http://www.w3.org/1999/xlink">
    <!-- Generator: Sketch 52.6 (67491) - http://www.bohemiancoding.com/sketch -->
    <title>大赛流程/2</title>
    <desc>Created with Sketch.</desc>
    <g id="大赛流程/2" stroke="none" stroke-width="1" fill="none" fill-rule="evenodd">
        <g id="tijiao-2" transform="translate(3.000000, 6.000000)" fill="#41367F" fill-rule="nonzero">
            <path d="M115,7.92 L115,6.96000004 L115,6.71999996 C115,6.23999992 115,5.99999996 114.760417,5.52000004 L114.760417,5.27999996 C114.760417,5.04 114.520833,4.55999996 114.520833,4.32 C114.520833,4.32 114.520833,4.08000004 114.28125,4.08000004 C114.041667,3.84000007 114.041667,3.36000004 113.802083,3.11999996 L113.802083,2.88 C113.5625,2.64000004 113.322917,2.16 112.84375,1.92000004 L112.604167,1.92000004 L112.364583,1.67999996 C111.885417,1.19999992 111.645833,1.19999992 111.645833,0.959999962 C111.645833,0.959999962 111.40625,0.959999962 111.40625,0.72 C110.927083,0.480000037 110.6875,0.239999963 110.208333,0.239999963 L109.96875,0.239999963 C109.729167,0.239999963 109.25,0 109.010417,0 L107.572917,0 L107.333333,0 C107.09375,0 106.614583,0 106.375,0.239999963 L105.895833,0.239999963 C105.65625,0.239999963 105.177083,0.479999925 104.9375,0.480000037 L104.697917,0.480000037 L4.0729167,50.88 C1.4375,52.08 0,54.72 0,57.6 C0.239583296,60.48 1.9166667,62.88 4.5520833,64.08 L23.71875,71.28 C27.3125,72.72 31.625,70.8 33.0625,66.96 C34.5,63.12 32.5833333,59.04 28.75,57.6 L24.9166667,56.16 L77.3854167,29.76 L45.0416667,67.2 C43.84375,68.4 43.125,70.3199999 43.125,72 L43.125,100.8 C43.125,104.88 46.2395833,108 50.3125,108 C54.3854167,108 57.5,104.88 57.5,100.8 L57.5,84.48 L91.28125,95.76 C92,96 92.71875,96.24 93.4375,96.24 C94.6354167,96.24 96.0729167,96.0000001 97.03125,95.28 C98.9479167,94.32 100.145833,92.4 100.385417,90.24 L114.760417,8.64 L114.760417,8.40000004 C115,8.16000008 115,8.16000008 115,7.92 Z M87.9270833,79.44 L61.3333333,70.56 L96.3125,30.96 L87.9270833,79.44 Z" id="Shape"></path>
        </g>
    </g>
</svg>