<?xml version="1.0" encoding="UTF-8"?>
<svg width="151px" height="40px" viewBox="0 0 151 40" version="1.1" xmlns="http://www.w3.org/2000/svg" xmlns:xlink="http://www.w3.org/1999/xlink">
    <!-- Generator: Sketch 49.1 (51147) - http://www.bohemiancoding.com/sketch -->
    <title>Group 32</title>
    <desc>Created with Sketch.</desc>
    <defs>
        <polygon id="path-1" points="0.0156272727 0.202626667 17.7292829 0.202626667 17.7292829 13 0.0156272727 13"></polygon>
        <polygon id="path-3" points="0.0156272727 0.202626667 17.7292829 0.202626667 17.7292829 13 0.0156272727 13"></polygon>
        <polygon id="path-5" points="0.170339394 0.8086 25.6241818 0.8086 25.6241818 38.42735 0.170339394 38.42735"></polygon>
        <polygon id="path-7" points="0.704963349 0.202626667 18.5897652 0.202626667 18.5897652 13 0.704963349 13"></polygon>
        <polygon id="path-9" points="0.705766395 0.202626667 18.5905913 0.202626667 18.5905913 13 0.705766395 13"></polygon>
        <polygon id="path-11" points="0 0.183315789 15.2829011 0.183315789 15.2829011 14.3275263 0 14.3275263"></polygon>
        <polygon id="path-13" points="0.463447368 0.0639750855 18.3057105 0.0639750855 18.3057105 17.6720512 0.463447368 17.6720512"></polygon>
        <polygon id="path-15" points="0 38 102 38 102 0 0 0"></polygon>
    </defs>
    <g id="Page-1" stroke="none" stroke-width="1" fill="none" fill-rule="evenodd">
        <g id="合作办学" transform="translate(-376.000000, -24.000000)">
            <g id="Group-32" transform="translate(376.000000, 24.000000)">
                <g id="Group-31">
                    <g id="Page-1">
                        <path d="M0.409385599,25.3963283 L13.2501618,2.33943844 C13.9358187,1.10915767 15.1123802,1.00492441 15.430261,1 L26,1 L5.9203931,39 C5.69666937,38.7997408 5.52364562,38.5280778 5.5011123,38.4927862 L0.546195073,29.4146436 C0.546999834,29.4138229 0.547804596,29.4130022 0.549414119,29.4130022 C-0.598980697,27.300432 0.409385599,25.3963283 0.409385599,25.3963283" id="Fill-1" fill="#009CC8"></path>
                        <polygon id="Fill-3" fill="#00719F" points="20.8861727 11.159547 21 10.9338157 16 1 19.4568373 14"></polygon>
                        <g id="Group-7" transform="translate(0.000000, 27.000000)">
                            <mask id="mask-2" fill="white">
                                <use xlink:href="#path-1"></use>
                            </mask>
                            <g id="Clip-6"></g>
                            <path d="M17.5885364,1.65082667 L17.7268091,6.48422667 L17.7268091,6.48509333 L17.7292636,6.57436 C17.7309,6.96522667 17.6319,8.55382667 15.9399,9.34509333 L8.62699091,12.7666933 C8.62699091,12.7666933 6.74762727,13.6896933 5.59808182,11.8644933 L5.12108182,10.9518933 L0.555627273,2.26702667 C0.556445455,2.26616 0.557263636,2.26529333 0.5589,2.26529333 C0.172718182,1.52862667 0.0393545455,0.82576 0.0156272727,0.202626667 L15.9399,0.202626667 C17.2547182,0.202626667 17.5345364,1.11696 17.5885364,1.65082667" id="Fill-5" fill="#FFFFFE" mask="url(#mask-2)"></path>
                        </g>
                        <g id="Group-10" transform="translate(0.000000, 27.000000)">
                            <mask id="mask-4" fill="white">
                                <use xlink:href="#path-3"></use>
                            </mask>
                            <g id="Clip-9"></g>
                            <path d="M17.5885364,1.65169333 L17.7268091,6.48422667 L17.7268091,6.48509333 L17.7292636,6.57436 C17.7309,6.96522667 17.6319,8.55382667 15.9399,9.34509333 L8.62699091,12.7666933 C8.62699091,12.7666933 6.74762727,13.6896933 5.59808182,11.8644933 L5.12108182,10.9518933 L0.555627273,2.26702667 C0.556445455,2.26616 0.557263636,2.26529333 0.5589,2.26529333 C0.172718182,1.52862667 0.0393545455,0.82576 0.0156272727,0.202626667 L15.9399,0.202626667 C17.2547182,0.202626667 17.5345364,1.11696 17.5885364,1.65169333" id="Fill-8" fill="#56B7D5" mask="url(#mask-4)"></path>
                        </g>
                        <path d="M0,27 C0.0233103356,27.6118618 0.167191372,28.3090599 0.54497957,29.0310055 C0.543371961,29.0310055 0.542568156,29.0318589 0.541764351,29.0327123 L5.49078974,38.4717679 C5.51329627,38.5084625 5.68611427,38.7909259 5.90957197,39 L11.9903543,27.018774 L12,27 L0,27 Z" id="Fill-11" fill="#84C7DE"></path>
                        <g id="Group-15" transform="translate(16.000000, 0.000000)">
                            <mask id="mask-6" fill="white">
                                <use xlink:href="#path-5"></use>
                            </mask>
                            <g id="Clip-14"></g>
                            <path d="M25.2233091,24.9601625 L12.652703,2.1346 C11.9806424,0.9166625 10.8287636,0.813475 10.5175515,0.8086 L0.170339394,0.8086 L19.828703,38.42735 C20.0477333,38.2291 20.2171273,37.9601625 20.2384,37.925225 L25.0893697,28.9381625 C25.0885818,28.93735 25.0877939,28.9365375 25.0870061,28.9365375 C26.2113091,26.8451625 25.2233091,24.9601625 25.2233091,24.9601625" id="Fill-13" fill="#56B7D5" mask="url(#mask-6)"></path>
                        </g>
                        <g id="Group-18" transform="translate(23.000000, 27.000000)">
                            <mask id="mask-8" fill="white">
                                <use xlink:href="#path-7"></use>
                            </mask>
                            <g id="Clip-17"></g>
                            <path d="M0.847895652,1.65082667 L0.708286957,6.48422667 L0.708286957,6.48509333 L0.704982609,6.57436 C0.703330435,6.96522667 0.804113043,8.55382667 2.51246087,9.34509333 L9.89602609,12.7666933 C9.89602609,12.7666933 11.7935478,13.6896933 12.9533739,11.8644933 L13.4358087,10.9518933 L18.0462,2.26702667 C18.0445478,2.26616 18.0437217,2.26529333 18.0420696,2.26529333 C18.4311565,1.52862667 18.5666348,0.82576 18.5897652,0.202626667 L2.51246087,0.202626667 C1.18411304,0.202626667 0.902417391,1.11696 0.847895652,1.65082667" id="Fill-16" fill="#FFFFFE" mask="url(#mask-8)"></path>
                        </g>
                        <g id="Group-21" transform="translate(23.000000, 27.000000)">
                            <mask id="mask-10" fill="white">
                                <use xlink:href="#path-9"></use>
                            </mask>
                            <g id="Clip-20"></g>
                            <path d="M0.847895652,1.65082667 L0.708286957,6.48422667 L0.708286957,6.48509333 L0.705808696,6.57436 C0.703330435,6.96522667 0.804113043,8.55382667 2.51246087,9.34509333 L9.89602609,12.7666933 C9.89602609,12.7666933 11.7935478,13.6896933 12.9533739,11.8644933 L13.4366348,10.9518933 L18.0462,2.26702667 C18.0445478,2.26616 18.0437217,2.26529333 18.0420696,2.26529333 C18.4311565,1.52862667 18.5666348,0.82576 18.5905913,0.202626667 L2.51246087,0.202626667 C1.18411304,0.202626667 0.902417391,1.11696 0.847895652,1.65082667" id="Fill-19" fill="#009CC8" mask="url(#mask-10)"></path>
                        </g>
                        <path d="M41,27 C40.9758875,27.6118618 40.8320161,28.3090599 40.4550569,29.0310055 C40.4558607,29.0310055 40.4566644,29.0318589 40.4574682,29.0327123 L35.5087743,38.4717679 C35.487073,38.5084625 35.3142666,38.7909259 35.0908238,39 L29.0104488,27.018774 L29,27 L41,27 Z" id="Fill-22" fill="#84C7DE"></path>
                        <polygon id="Fill-24" fill="#84C7DE" points="26 1 16 1 20.9996181 10"></polygon>
                        <polygon id="Fill-26" fill="#00719F" points="34 39 26 27 28.5101874 27"></polygon>
                    </g>
                    <g id="Page-1" transform="translate(52.000000, 2.000000)">
                        <path d="M44.9297051,2.05202054 L38.9819172,13.6952445 C38.8869096,13.8820049 38.6937537,14 38.4793978,14 L36.518787,14 C36.3075719,14 36.1136308,13.8820049 36.0154825,13.6952445 L30.0708353,2.05202054 C29.9695462,1.85666443 29.9789684,1.62614423 30.0857538,1.43625809 L30.7209697,0.343045323 C30.844244,0.131279303 31.0719481,0 31.3192818,0 L31.8948236,0 C32.0432238,0 32.1837722,0.0828309891 32.2489427,0.218798839 L37.2466549,10.1131949 C37.3518699,10.3210538 37.6494556,10.3210538 37.7538854,10.1131949 L42.7492421,0.218798839 C42.8144126,0.0828309891 42.9541758,0 43.1057168,0 L43.678903,0 C43.9254516,0 44.1531557,0.131279303 44.2764299,0.343045323 L44.9132162,1.43938379 C45.0231423,1.62770708 45.0286386,1.85822728 44.9297051,2.05202054" id="Fill-1" fill="#1A1919"></path>
                        <g id="Group-5">
                            <mask id="mask-12" fill="white">
                                <use xlink:href="#path-11"></use>
                            </mask>
                            <g id="Clip-4"></g>
                            <path d="M15.21128,2.25647368 L9.15128,14.0196316 C9.05448,14.2083158 8.85768,14.3275263 8.63928,14.3275263 L6.64168,14.3275263 C6.42648,14.3275263 6.22888,14.2083158 6.12888,14.0196316 L0.07208,2.25647368 C-0.03112,2.05910526 -0.02232,1.82621053 0.08728,1.63436842 L0.73528,0.528315789 C0.86088,0.315157895 1.09128,0.183315789 1.34088,0.183315789 L1.93048,0.183315789 C2.08168,0.183315789 2.22488,0.267 2.29128,0.404368421 L7.38328,10.4006842 C7.49048,10.6106842 7.79368,10.6106842 7.90008,10.4006842 L12.98968,0.404368421 C13.05608,0.267 13.19848,0.183315789 13.35288,0.183315789 L13.93928,0.183315789 C14.18888,0.183315789 14.42008,0.315157895 14.54488,0.528315789 L15.19448,1.63752632 C15.30648,1.82778947 15.31208,2.06068421 15.21128,2.25647368" id="Fill-3" fill="#1A1919" mask="url(#mask-12)"></path>
                        </g>
                        <path d="M23.8184902,0.165652732 C23.7073791,0.0632918457 23.553011,0 23.3825276,0 L22.4215437,0 C22.1560645,0 21.9100933,0.130490596 21.7777778,0.343026176 L21.0932994,1.43774069 C21.0322307,1.53619468 21,1.64715075 21,1.75966959 L21,13.4327175 C21,13.7460512 21.2756573,14 21.6157761,14 L23.389313,14 C23.7268872,14 24,13.7483954 24,13.4374058 L24,0.568845231 C24,0.411006307 23.9304495,0.26957638 23.8184902,0.165652732" id="Fill-6" fill="#1A1919"></path>
                        <path d="M52.7142254,0.341425303 C52.8358451,0.129694737 53.0597183,0 53.3014085,0 L61.7040141,0 C61.941831,0 62.1602817,0.127350857 62.2795775,0.333612367 L62.8714085,1.36023216 C62.9550704,1.50711535 63,1.67431218 63,1.84385289 L63,2.0993359 C63,2.30950388 62.8295775,2.48373235 62.6180986,2.48373235 L54.9583803,2.48373235 C54.8042254,2.48373235 54.6779577,2.61030191 54.6779577,2.76656063 L54.6779577,5.44639768 C54.6779577,5.6018751 54.8034507,5.72844467 54.9576056,5.72844467 L60.1492958,5.72844467 C60.4010563,5.73156984 60.606338,5.93861265 60.606338,6.19331436 L60.606338,7.73324404 C60.606338,7.98872705 60.3987324,8.19889503 60.1454225,8.19889503 L54.9576056,8.19889503 C54.8034507,8.19889503 54.6779577,8.3246833 54.6779577,8.48016072 L54.6779577,11.2318768 C54.6779577,11.3881355 54.8034507,11.5139238 54.9576056,11.5139238 L62.6180986,11.5139238 C62.8295775,11.5139238 63,11.6850271 63,11.895195 L63,12.1522406 C63,12.3233439 62.9550704,12.4905408 62.8714085,12.637424 L62.2795775,13.6663876 C62.1602817,13.8726491 61.941831,14 61.7040141,14 L53.3014085,14 C53.0597183,14 52.8358451,13.869524 52.7142254,13.6585747 L52.1301408,12.6413304 C52.0449296,12.4928846 52,12.3256878 52,12.1545845 L52.0015493,1.8430716 C52.0015493,1.6727496 52.0457042,1.50555277 52.1301408,1.35866957 L52.7142254,0.341425303 Z" id="Fill-8" fill="#1A1919"></path>
                        <path d="M71.2995933,11.2464916 C71.2995933,11.4067069 71.4642027,11.5370782 71.6683184,11.5370782 L75.0016587,11.5370782 C77.1819102,11.4019947 78.1769741,9.82732932 78.4617483,8.30449832 C78.6708023,7.18534712 78.6263577,6.03321042 78.3053694,4.9297666 C78.1160686,4.27712475 77.7950802,3.62369752 77.2288239,3.11399287 C76.7761481,2.70638623 76.1045417,2.35297006 75.3934291,2.33255046 L71.6995942,2.33255046 C71.4963016,2.33255046 71.3316922,2.46213639 71.3308691,2.62235172 L71.2995933,11.2464916 Z M75.5588615,0.00942818419 C76.0172987,0.0109989227 76.4551597,0.0494820165 76.8963129,0.159433713 C77.9572205,0.422532415 78.8354117,0.998993453 79.4526969,1.7183917 C80.6057858,3.06137313 80.9243049,4.77347812 80.9909717,6.35756792 C81.0551694,7.87175986 80.7819178,9.42129341 80.0131919,10.8192507 C79.1901449,12.3185206 77.721006,13.5397698 75.671619,13.9717229 C75.6255284,13.9811473 75.5794377,13.9905718 75.5333471,13.9999962 L70.7045303,13.9999962 C70.4000029,14.0007816 70.1160517,13.8798347 69.9432119,13.6779948 L69.1596711,12.7614689 C69.0551441,12.6389513 69,12.4952287 69,12.3467939 L69.0016461,2.1629107 L69.000823,1.69168914 C69,1.54561046 69.0534981,1.40345862 69.1539098,1.28172639 L69.9465041,0.327502735 C70.1168748,0.121735989 70.4024721,-0.000781616202 70.7078225,3.75305875e-06 L75.5588615,0.00942818419 Z" id="Fill-10" fill="#1A1919"></path>
                        <path d="M88.936648,0 C89.180574,0 89.3786668,0.198045239 89.3786668,0.444030001 C89.3809973,2.09204931 89.3887656,7.83064589 89.3856583,9.26725977 C89.3817741,11.6500898 92.4992103,11.6500898 92.4992103,11.6500898 C92.4992103,11.6500898 95.5739207,11.6500898 95.5739207,9.26725977 L95.5995562,0.440100532 C95.600333,0.196473452 95.7953184,0 96.0353603,0 L96.6568277,0 C96.8424911,0 97.016502,0.0903777878 97.1252588,0.24362708 L97.8741272,1.29751068 C97.9533643,1.40989349 97.996867,1.54428133 97.996867,1.68259864 L97.9991975,9.26725977 C97.9991975,9.26725977 98.0030817,9.47159216 97.9937596,9.61776841 C97.9696778,9.98163725 97.9005395,10.3423625 97.7894522,10.6912994 C97.6371927,11.1683369 97.4018119,11.6217976 97.0864171,12.0233894 C96.6894548,12.5279332 96.1713063,12.9381697 95.5879037,13.2415248 C94.5166491,13.7971517 93.2348724,14.0816452 92.0113584,13.979479 C91.7852996,13.9606176 91.5592408,13.9283959 91.3362893,13.8859577 C90.7816296,13.7814338 90.2393992,13.6132525 89.7344569,13.3735549 C89.1254188,13.0827742 88.5769737,12.684326 88.1458307,12.1868553 C87.6105918,11.5683568 87.2788835,10.8201859 87.1157483,10.0421511 C87.0637004,9.79459452 87.0085452,9.3403479 87.0007768,9.27511871 C87,9.26725977 87,9.26333031 87,9.25547137 L87,1.68495632 C87,1.54506722 87.0435027,1.4091076 87.1242935,1.29593889 L87.9228792,0.183899151 C88.0060005,0.0683727612 88.1380623,0 88.2786693,0 L88.936648,0 Z" id="Fill-12" fill="#1A1919"></path>
                        <path d="M11.5392315,21.767651 L12.3524996,21 C12.9639104,21.5420182 13.4752266,22.0282527 13.8864483,22.4587034 L13.0590002,23.3029529 C12.6277596,22.7817496 12.121448,22.2697047 11.5392315,21.767651 Z M7.59800923,29.6439831 L5.5819385,29.6439831 C5.32586332,30.2118117 5.07479286,30.718861 4.82956125,31.1634658 C5.32085859,31.4249001 5.8071512,31.6855018 6.28843908,31.9469361 C6.89567925,31.2300733 7.3319246,30.4624223 7.59800923,29.6439831 Z M3.17466496,26.8489676 L8.77078352,26.8489676 L8.77078352,25.7740897 L3.17466496,25.7740897 L3.17466496,26.8489676 Z M3.56503364,31.6089032 C3.87616082,30.9894538 4.18061503,30.3342029 4.4758939,29.6439831 L3.1287883,29.6439831 L3.1287883,28.5691052 L4.91213924,28.5691052 C5.0881388,28.1186723 5.26080187,27.6524201 5.43096258,27.1720138 L6.49947172,27.4942274 C6.3484958,27.8730573 6.20085636,28.231905 6.05571929,28.5691052 L8.72574098,28.5691052 L8.72574098,29.6281639 C8.3945949,30.6830595 7.90413168,31.6372114 7.25184897,32.4922846 C7.66307068,32.7270759 8.06928766,32.9651976 8.47049992,33.2049845 L7.85408441,34.2040964 C7.4270144,33.9118561 6.98659845,33.6229463 6.52950008,33.3365342 C5.7320803,34.16996 4.75449035,34.8951488 3.59589612,35.50877 C3.32480676,35.1199489 3.09875994,34.812722 2.91858978,34.5870893 C3.95707057,34.0142651 4.83206362,33.3956483 5.54440305,32.7295737 C4.91213924,32.3565719 4.25318356,31.9827376 3.56503364,31.6089032 Z M9.20786298,21.0466252 L10.3214147,21.0466252 C10.3214147,21.5636656 10.3456042,22.3204929 10.3956514,23.3179396 L14.758939,23.3179396 L14.758939,24.4236234 L10.4640494,24.4236234 C10.654229,26.8955928 10.9153089,28.9504329 11.2456209,30.5881439 C12.0638937,29.1444272 12.7078352,27.5658304 13.1791136,25.8515209 L14.2634711,26.2353464 C13.5853306,28.4925067 12.7103375,30.4782416 11.6376578,32.1925511 C11.9187566,33.1800067 12.2415615,33.9426621 12.6077406,34.4805173 C12.9488962,34.8793295 13.209142,34.8018983 13.3901462,34.2490564 C13.5302786,33.6862234 13.6762498,32.816996 13.8263916,31.6388766 C14.2784852,31.8237123 14.6688539,31.9727464 15,32.0851465 C14.8198298,33.2416186 14.6388256,34.1324933 14.4586554,34.7569383 C14.2075849,35.5853686 13.7112829,36 12.9689151,36 C12.4475894,36 11.9654674,35.6469805 11.5242173,34.9401088 C11.273981,34.5004996 11.0404271,33.9809614 10.8252238,33.3823268 C10.1879553,34.2465586 9.4889618,35.0333592 8.72574098,35.7385657 C8.43546683,35.5337478 8.09931602,35.303952 7.71812267,35.0475133 C8.7307457,34.1116785 9.62659178,33.0775977 10.4039927,31.9469361 C9.91770005,30.0278086 9.5640327,27.5200377 9.3429906,24.4236234 L2.69337708,24.4236234 L2.69337708,28.7073157 C2.69337708,31.8187167 2.08113218,34.2490564 0.857476506,36 C0.57637769,35.6619671 0.291108269,35.3397536 0,35.0333592 C1.03264194,33.5996337 1.54979703,31.4507105 1.54979703,28.5849245 L1.54979703,23.3179396 L9.28293388,23.3179396 C9.23288662,22.2697047 9.20786298,21.5120448 9.20786298,21.0466252 Z" id="Fill-14" fill="#1A1919"></path>
                        <path d="M39,31 L34,31 C34.6768621,31.8076028 35.5066553,32.4740109 36.4907958,33 C37.5167091,32.4445306 38.3528745,31.7788984 39,31 Z M35.3868063,23.8406959 L36.1408796,23.3807258 C34.9679652,23.41661 33.7417004,23.4524942 32.4636776,23.4883784 C32.9040181,23.963844 33.3324146,24.4906891 33.7496631,25.068914 L32.923925,25.6675275 L40.0338724,25.6675275 L39.3944628,25.192062 C39.853914,24.5877396 40.2751439,23.9336686 40.6589489,23.2274025 L41.7211809,23.8406959 C41.3095063,24.4857958 40.8866838,25.0950116 40.4503246,25.6675275 L43,25.6675275 L43,28 L41.8796398,28 L41.8796398,26.7416066 L31.1203602,26.7416066 L31.1203602,28 L30,28 L30,25.6675275 L32.7646699,25.6675275 C32.3864388,25.1047982 31.9827269,24.5624575 31.5511454,24.0413212 L32.3275144,23.4883784 C31.6904937,23.5030583 31.03914,23.5193693 30.3734534,23.5348648 C30.3248806,23.2070137 30.2579934,22.8383852 30.1719956,22.4297948 C34.7688962,22.3988039 38.9541223,22.2552671 42.7268774,22 L42.8996692,23.0895746 C40.9408306,23.1923338 38.7677937,23.2836754 36.3781698,23.3652304 C36.808955,23.9230665 37.201519,24.4857958 37.5558618,25.0534185 L36.5644983,25.6373522 C36.1719343,24.9620769 35.7793703,24.3626478 35.3868063,23.8406959 Z M29.4042624,28.189642 L33.5875663,28.189642 C33.7367491,27.8073115 33.8712456,27.4105103 33.9918286,27 L35.1775618,27 C35.0469302,27.4067022 34.9077959,27.8027418 34.7586131,28.189642 L42.8330389,28.189642 L42.8330389,29.1926885 L34.3334806,29.1926885 C34.152606,29.5940594 33.9570451,29.9809596 33.7483436,30.3541508 L41.1734761,30.3541508 L41.1734761,31.3564356 C40.3835027,32.3076923 39.3832818,33.1218583 38.1751325,33.800457 C39.5602915,34.2779893 41.1688383,34.5719726 43,34.6816451 C42.7487853,35.1119573 42.5300353,35.5026657 42.344523,35.8568165 C40.2149956,35.6085301 38.3962014,35.1378522 36.8850486,34.4455446 C35.2857774,35.1523229 33.3927783,35.6702209 31.2029594,36 C31.0267226,35.6846915 30.8126104,35.3602437 30.5621687,35.0258949 C32.5417403,34.7631379 34.2523189,34.3610053 35.6931316,33.8217822 C34.6194788,33.1721249 33.7452518,32.3792841 33.0719965,31.4424981 C32.1282023,32.8522468 30.9702959,34.0654989 29.5998233,35.083016 C29.4228136,34.7296268 29.2233878,34.3808073 29,34.0373191 C30.821886,32.7562833 32.2047261,31.1416603 33.1485203,29.1926885 L29.4042624,29.1926885 L29.4042624,28.189642 Z" id="Fill-16" fill="#1A1919"></path>
                        <g id="Group-20" transform="translate(54.000000, 20.000000)">
                            <mask id="mask-14" fill="white">
                                <use xlink:href="#path-13"></use>
                            </mask>
                            <g id="Clip-19"></g>
                            <path d="M11.542159,5.51547064 C11.7420716,7.38092337 12.1976101,8.99399621 12.9079553,10.3571797 C13.8190325,8.73829552 14.3048856,6.82718195 14.3646955,4.62466922 L11.8723425,4.62466922 C11.7723862,4.92187976 11.6617788,5.2190903 11.542159,5.51547064 M9.12436345,8.26674361 C10.255836,6.13562782 11.161178,3.62594219 11.8420279,0.736026316 L12.9382699,1.01331212 C12.737538,1.85347152 12.5081301,2.68864974 12.2475883,3.51801657 L16.9324255,3.51801657 L16.9324255,4.62466922 L15.4601183,4.62466922 C15.3904766,7.26718638 14.7596049,9.54275645 13.5683224,11.4480586 C14.4793995,12.7282225 15.6755979,13.7277797 17.1577368,14.4450699 C16.8767122,14.8651496 16.641569,15.2437195 16.4514882,15.5824399 C14.9898321,14.7215255 13.7985496,13.6713263 12.8776407,12.4318421 C11.8674266,13.7227985 10.5557049,14.8236398 8.9449337,15.7360263 C8.76468462,15.4687029 8.51889044,15.1308127 8.20837044,14.7215255 C9.88059024,13.8506489 11.216072,12.7498076 12.2172737,11.4165112 C11.5167602,10.2185368 11.0415581,8.86614586 10.7908481,7.36016845 C10.5606208,7.86160745 10.3254777,8.35889548 10.0854187,8.85120232 C9.76506697,8.63535109 9.44471521,8.44025479 9.12436345,8.26674361 M9.57498613,2.05769999 L10.4754122,2.65793245 C9.86502327,3.59024372 9.18499269,4.51176242 8.43368178,5.42414896 L9.54467152,5.42414896 L9.54467152,6.43781954 L7.57831801,6.43781954 C7.17767348,6.89857889 6.76719719,7.3443947 6.34688913,7.77526696 L8.80974689,7.77526696 L8.80974689,8.69678567 L6.87288869,10.6494091 L6.87288869,10.9258647 C7.6831902,10.7822406 8.57870036,10.6178616 9.56023848,10.4335579 C9.52992386,10.8237505 9.51026033,11.175754 9.49960925,11.4937195 C8.67865666,11.6373436 7.80362935,11.7959112 6.87288869,11.9702526 L6.87288869,13.6455902 C6.94253037,14.9157916 6.36245609,15.5259865 5.13102721,15.4745143 C4.70006806,15.4745143 4.14539251,15.4637217 3.46454261,15.443797 C3.42357691,15.1150389 3.37441807,14.7323181 3.31460816,14.2906533 C3.78489437,14.3421255 4.31990639,14.3728428 4.92046352,14.3836353 C5.55133527,14.4450699 5.84137241,14.1578218 5.79139426,13.522721 L5.79139426,12.1703301 C4.82050722,12.3546338 3.79964202,12.5547113 2.72879867,12.7689021 L2.54773029,11.6481361 C3.37933396,11.5244368 4.46000907,11.3509256 5.79139426,11.125112 L5.79139426,10.3571797 L7.36775432,8.75822025 L5.35551923,8.75822025 C4.52555419,9.53777526 3.69476983,10.2542353 2.86316616,10.910091 C2.66325356,10.6228428 2.42811045,10.3314436 2.15773684,10.0334029 C2.73863044,9.61415339 3.27937765,9.18909251 3.77997849,8.75822025 L2.53298264,8.75822025 L2.53298264,7.77526696 L4.8606536,7.77526696 C5.33093981,7.3443947 5.78647838,6.89857889 6.22726929,6.43781954 L2.33798591,6.43781954 L2.33798591,5.42414896 L5.29570931,5.42414896 L5.29570931,3.85590677 L2.93854305,3.85590677 L2.93854305,2.84140599 L5.29570931,2.84140599 L5.29570931,0.751800059 L6.37720374,0.751800059 L6.37720374,2.84140599 L8.22393741,2.84140599 L8.22393741,3.85590677 L6.37720374,3.85590677 L6.37720374,5.42414896 L7.11294768,5.42414896 C8.01337372,4.38889326 8.83432631,3.26729707 9.57498613,2.05769999" id="Fill-18" fill="#1A1919" mask="url(#mask-14)"></path>
                        </g>
                        <mask id="mask-16" fill="white">
                            <use xlink:href="#path-15"></use>
                        </mask>
                        <g id="Clip-22"></g>
                        <path d="M86.1976776,32.4059026 L94.8489916,32.4059026 L94.8489916,31.1111605 L86.1976776,31.1111605 L86.1976776,32.4059026 Z M86.1976776,30.1073811 L94.8489916,30.1073811 L94.8489916,28.812639 L86.1976776,28.812639 L86.1976776,30.1073811 Z M85.0242791,27.776345 L96.0223901,27.776345 L96.0223901,34.065807 C96.0223901,35.2638395 95.3015168,35.8632726 93.85977,35.8632726 C93.3755764,35.8632726 92.7838769,35.8574366 92.083838,35.8474322 C92.0630035,35.7457203 91.9804989,35.3297021 91.8363242,34.5985438 C92.5471971,34.7002557 93.1955664,34.7519453 93.7822657,34.7519453 C94.472304,34.7519453 94.8281571,34.4618164 94.8489916,33.8832259 L94.8489916,33.4113495 L86.1976776,33.4113495 L86.1976776,36 L85.0242791,36 L85.0242791,27.776345 Z M93.752264,23.9996665 C95.0698372,24.8933971 96.3724096,25.8229769 97.6599811,26.7867386 L96.7790988,27.6546243 C96.3524085,27.2886283 95.9065504,26.9242997 95.4431913,26.55747 C91.4063004,26.5733104 88.3244625,26.6291685 86.1976776,26.7258782 C85.5493083,26.7567252 84.9934441,26.8117497 84.530085,26.8934526 L84.097561,25.6145509 C84.8076004,25.481992 85.3792988,25.2894064 85.8118229,25.0351267 C86.4293572,24.6758004 87.0427246,24.248944 87.6502583,23.756225 L83,23.756225 L83,22.6907514 L90.2454025,22.6907514 C90.0287238,22.3197532 89.792044,21.9295798 89.5345297,21.5177301 L90.6004222,21 C91.0687816,21.7211538 91.4163009,22.283904 91.6429802,22.6907514 L98,22.6907514 L98,23.756225 L89.4728596,23.756225 C88.4536363,24.4673744 87.5210845,25.0859827 86.6768709,25.6145509 C89.0920051,25.6145509 91.5579754,25.5887061 94.0764487,25.5386839 C93.7364298,25.2894064 93.3864104,25.0401289 93.025557,24.7916852 L93.752264,23.9996665 Z" id="Fill-21" fill="#1A1919" mask="url(#mask-16)"></path>
                    </g>
                </g>
            </g>
        </g>
    </g>
</svg>