<svg viewBox="0 0 123 46" xmlns="http://www.w3.org/2000/svg">
  <g fill-rule="evenodd">
    <path d="M57.014 2.626l-7.575 14.9a.714.714 0 0 1-.64.39h-2.497a.725.725 0 0 1-.64-.39l-7.572-14.9a.83.83 0 0 1 .02-.788l.808-1.399A.878.878 0 0 1 39.68 0h.734c.19 0 .368.106.451.28l6.365 12.662a.362.362 0 0 0 .646 0L54.236.28a.502.502 0 0 1 .455-.28h.73a.88.88 0 0 1 .762.439l.81 1.403c.14.241.148.536.021.784zM19.014 2.626l-7.575 14.9a.714.714 0 0 1-.64.39H8.302a.725.725 0 0 1-.64-.39L.09 2.626a.83.83 0 0 1 .02-.788l.81-1.4A.873.873 0 0 1 1.675 0h.737c.19 0 .368.106.451.28L9.23 12.942a.362.362 0 0 0 .646 0L16.236.28a.502.502 0 0 1 .455-.28h.733c.312 0 .601.166.757.438l.812 1.404c.14.241.148.536.021.784M30.323.212A.725.725 0 0 0 29.809 0h-1.133a.873.873 0 0 0-.758.439L27.11 1.84a.83.83 0 0 0-.11.412v14.939c0 .4.325.725.726.725h2.091a.72.72 0 0 0 .72-.719V.729a.728.728 0 0 0-.214-.517M64.922.437A.876.876 0 0 1 65.68 0h10.847a.86.86 0 0 1 .743.427l.764 1.314c.108.187.166.402.166.619v.327a.494.494 0 0 1-.493.491h-9.888a.363.363 0 0 0-.362.363V6.97c0 .199.162.362.361.362h6.701a.597.597 0 0 1 .591.594v1.972a.596.596 0 0 1-.595.595h-6.697a.361.361 0 0 0-.361.361v3.521c0 .201.162.362.361.362h9.889c.272 0 .493.219.493.489v.327c0 .22-.058.434-.166.621l-.764 1.318a.863.863 0 0 1-.743.427H65.68a.878.878 0 0 1-.758-.437l-.754-1.303a1.234 1.234 0 0 1-.168-.621l.002-13.199c0-.217.057-.432.166-.62l.754-1.302zM88.794 14.32c-.001.204.2.369.448.369h4.05c2.649-.171 3.858-2.176 4.203-4.115a9.687 9.687 0 0 0-.189-4.296c-.23-.831-.62-1.663-1.308-2.313-.55-.518-1.366-.969-2.23-.995H89.28c-.247 0-.448.165-.448.369l-.038 10.981zM93.969.012a6.417 6.417 0 0 1 1.625.191A5.954 5.954 0 0 1 98.7 2.187c1.401 1.712 1.788 3.891 1.869 5.907.078 1.928-.254 3.902-1.188 5.683-1 1.908-2.786 3.464-5.275 4.013l-.168.036-5.867.001c-.37 0-.716-.154-.926-.411l-.951-1.167A.833.833 0 0 1 86 15.72l.002-12.966-.002-.6c0-.186.065-.367.187-.522L87.15.417c.206-.261.554-.418.925-.417l5.894.012zM110.493 0c.314 0 .569.251.569.565.003 2.097.012 9.398.009 11.227-.005 3.032 4.008 3.032 4.008 3.032s3.958 0 3.958-3.032L119.07.56a.561.561 0 0 1 .561-.56h.801c.238 0 .462.115.602.31l.964 1.341a.85.85 0 0 1 .157.49l.004 9.651s.006.261-.007.446a5.71 5.71 0 0 1-.263 1.366 5.43 5.43 0 0 1-.905 1.696 5.903 5.903 0 0 1-1.93 1.549c-1.378.707-3.028 1.068-4.603.938a8.173 8.173 0 0 1-.869-.118 8.57 8.57 0 0 1-2.062-.652c-.784-.37-1.49-.876-2.045-1.511-.688-.786-1.116-1.738-1.326-2.728a14.662 14.662 0 0 1-.148-.975l-.001-.026V2.144c0-.178.056-.351.16-.495l1.028-1.415a.567.567 0 0 1 .458-.234h.847zM13.834 27.922l.974-.922a30.94 30.94 0 0 1 1.84 1.752l-.992 1.014a15.32 15.32 0 0 0-1.822-1.844zm-4.725 9.459H6.692a25.39 25.39 0 0 1-.902 1.826c.589.315 1.172.627 1.749.94.728-.86 1.251-1.782 1.57-2.766zm-5.303-3.356h6.71v-1.291h-6.71v1.291zm.468 5.717c.373-.744.737-1.531 1.092-2.361H3.751V36.09h2.138c.21-.541.418-1.1.622-1.678l1.281.387a53.25 53.25 0 0 1-.532 1.291h3.201v1.273a11.11 11.11 0 0 1-1.767 3.438c.493.283.98.57 1.461.857l-.74 1.2c-.511-.35-1.04-.698-1.587-1.041-.956 1.001-2.128 1.871-3.518 2.609a20.377 20.377 0 0 0-.811-1.108c1.245-.687 2.294-1.431 3.147-2.23a75.83 75.83 0 0 0-2.372-1.346zm6.765-12.687h1.334c0 .621.03 1.531.09 2.728h5.231v1.328h-5.149c.228 2.969.541 5.438.937 7.403.981-1.733 1.753-3.629 2.318-5.688l1.299.461c-.812 2.711-1.861 5.096-3.147 7.156.336 1.186.724 2.102 1.163 2.747.409.48.721.386.938-.278.168-.676.342-1.72.523-3.133.541.221 1.01.399 1.407.536-.216 1.388-.433 2.457-.649 3.207-.301.996-.897 1.492-1.786 1.492-.625 0-1.203-.424-1.732-1.272a11.973 11.973 0 0 1-.839-1.871 19.924 19.924 0 0 1-2.516 2.83 77.22 77.22 0 0 0-1.208-.83 21.99 21.99 0 0 0 3.219-3.724c-.583-2.305-1.006-5.317-1.271-9.036H3.228v5.145c0 3.738-.733 6.656-2.2 8.758A24.376 24.376 0 0 0 0 43.854c1.238-1.721 1.858-4.303 1.858-7.744v-6.327h9.271a64.78 64.78 0 0 1-.09-2.728zM48.818 38.986h-7.062c.955 1.041 2.128 1.898 3.517 2.578 1.45-.715 2.631-1.574 3.545-2.578zm-6.079-9.729l.947-.564c-1.474.043-3.013.088-4.618.131a20.568 20.568 0 0 1 1.614 1.937l-1.037.735h8.93l-.803-.582a18.703 18.703 0 0 0 1.588-2.41l1.334.753a33.64 33.64 0 0 1-1.596 2.239H52.3v2.861h-1.407v-1.543H37.381v1.543h-1.407v-2.861h3.472a25.372 25.372 0 0 0-1.524-1.994l.974-.678c-.799.019-1.617.039-2.453.057a22.504 22.504 0 0 0-.253-1.354c5.773-.039 11.029-.215 15.767-.527l.217 1.336c-2.46.125-5.19.238-8.19.337a25.208 25.208 0 0 1 1.479 2.071l-1.245.715a22.409 22.409 0 0 0-1.479-2.202zm-7.216 5.608h5.412c.192-.502.367-1.024.523-1.563h1.534c-.169.534-.35 1.055-.542 1.563h10.445v1.316H41.9a19.478 19.478 0 0 1-.758 1.524h9.606v1.318c-1.022 1.248-2.315 2.317-3.878 3.209 1.792.627 3.872 1.012 6.242 1.156a39.135 39.135 0 0 0-.848 1.543c-2.755-.326-5.108-.943-7.063-1.853-2.069.928-4.519 1.609-7.351 2.041-.228-.414-.505-.84-.83-1.279 2.562-.344 4.775-.872 6.639-1.581-1.389-.853-2.52-1.894-3.391-3.123a19.16 19.16 0 0 1-4.493 4.78A14.288 14.288 0 0 0 35 42.541c2.357-1.68 4.146-3.801 5.367-6.36h-4.844v-1.316zM80.453 32.756c.244 2.246.8 4.191 1.667 5.832 1.112-1.951 1.705-4.252 1.778-6.904h-3.042c-.122.357-.256.715-.403 1.072m-2.95 3.314c1.38-2.566 2.485-5.589 3.316-9.07l1.338.332a43.632 43.632 0 0 1-.843 3.018h5.718v1.334h-1.796c-.086 3.183-.855 5.924-2.31 8.218 1.113 1.543 2.572 2.747 4.381 3.61-.342.506-.629.963-.862 1.369-1.784-1.037-3.238-2.301-4.361-3.795-1.234 1.557-2.835 2.883-4.801 3.981a29.55 29.55 0 0 0-.899-1.223c2.041-1.049 3.671-2.375 4.894-3.979-.856-1.445-1.436-3.074-1.742-4.886a84.814 84.814 0 0 1-.861 1.795 14.838 14.838 0 0 0-1.172-.704m.549-7.478l1.1.723a38.122 38.122 0 0 1-2.493 3.332h1.357v1.22h-2.401a39.076 39.076 0 0 1-1.502 1.612h3.005v1.109l-2.364 2.352v.334c.989-.174 2.082-.372 3.28-.592-.037.469-.061.892-.073 1.275-1.002.174-2.071.365-3.207.574v2.018c.085 1.531-.623 2.266-2.126 2.203-.525 0-1.203-.012-2.034-.037-.049-.395-.11-.857-.183-1.389.574.063 1.227.1 1.96.112.77.074 1.124-.272 1.063-1.036v-1.63c-1.185.222-2.431.463-3.738.722l-.22-1.351c1.014-.149 2.334-.358 3.958-.629v-.926l1.924-1.926h-2.455a46.328 46.328 0 0 1-3.042 2.592A10.75 10.75 0 0 0 69 38.199a29.665 29.665 0 0 0 1.979-1.537h-1.521v-1.183h2.84c.574-.52 1.13-1.057 1.668-1.612h-4.747v-1.22h3.61v-1.889h-2.877v-1.223h2.877v-2.517h1.32v2.517h2.254v1.223h-2.254v1.889h.898a30.385 30.385 0 0 0 3.005-4.055M107.837 40.681h10.381v-1.555h-10.381v1.555zm-.001-2.759h10.381v-1.553h-10.381v1.553zm-1.408-2.795h13.198v7.545c0 1.437-.865 2.154-2.595 2.154-.581 0-1.291-.006-2.132-.018l-.298-1.498c.853.123 1.633.184 2.337.184.828 0 1.254-.348 1.279-1.041v-.567h-10.38v3.106h-1.409v-9.865zm10.473-4.53a122.75 122.75 0 0 1 4.69 3.344l-1.058 1.041a51.297 51.297 0 0 0-1.602-1.316c-4.845.019-8.542.086-11.094.201-.779.037-1.446.105-2.002.201l-.519-1.533c.853-.16 1.539-.391 2.056-.696a17.387 17.387 0 0 0 2.207-1.533H104v-1.279h8.693c-.26-.445-.543-.914-.852-1.406L113.12 27c.562.865.979 1.539 1.251 2.027h7.628v1.279h-10.233a83.579 83.579 0 0 1-3.354 2.229c2.896 0 5.856-.031 8.878-.092a60.851 60.851 0 0 0-1.26-.896l.871-.95z"/>
  </g>
</svg>
